# xmcd
#
# Track frame offsets:
# 150
# 8695
# 16900
# 31865
# 36617
# 47357
# 56482
# 95895
# 107140
# 122810
# 133825
# 144505
# 156320
# 171255
# 185325
# 198660
#
# Disc length: 2842 seconds
#
#
# Revision: 2
# Processed by: cddbd v1.4PL0 Copyright (c) Steve Scherf et al.
# Submitted via: FreeRIP 2.00 
#
DISCID=e00b1810
DTITLE=Billie Holiday - I Loves You Porgy
DYEAR=1993
DGENRE=Blues
TTITLE0=I Loves You Porgy
TTITLE1=Miss Brown To You
TTITLE2=Don't Explain
TTITLE3=Just Friends
TTITLE4=Lover Come Back To Me
TTITLE5=Please Don't Talk About Me When I'm Gone
TTITLE6=Fine And Mellow
TTITLE7=Foolin' Myself
TTITLE8=Easy To Remember
TTITLE9=I Got It Bad And That Ain't Good
TTITLE10=T'aint Nobody's Bizness If I Do
TTITLE11=Nice Work If You Can Get It
TTITLE12=Love Man
TTITLE13=God Bless The Child
TTITLE14=He's Funny That Way
TTITLE15=Don't Be Late
EXTD=
EXTT0=
EXTT1=
EXTT2=
EXTT3=
EXTT4=
EXTT5=
EXTT6=
EXTT7=
EXTT8=
EXTT9=
EXTT10=
EXTT11=
EXTT12=
EXTT13=
EXTT14=
EXTT15=
PLAYORDER=
